<svg width="1440" height="720" viewBox="0 0 1440 720" fill="none" xmlns="http://www.w3.org/2000/svg">
<rect width="1440" height="720" fill="url(#paint0_linear_133_40)"/>
<g clip-path="url(#clip0_133_40)" filter="url(#filter0_f_133_40)">
<path d="M254.25 252C254.251 252.128 254.204 252.253 254.116 252.358C254.028 252.463 253.903 252.543 253.758 252.586L250.784 253.487L249.703 255.965C249.65 256.084 249.554 256.188 249.428 256.26C249.303 256.333 249.153 256.372 249 256.372C248.847 256.372 248.697 256.333 248.572 256.26C248.446 256.188 248.35 256.084 248.297 255.965L247.215 253.484L244.242 252.586C244.099 252.542 243.975 252.462 243.887 252.357C243.8 252.252 243.753 252.128 243.753 252C243.753 251.872 243.8 251.748 243.887 251.643C243.975 251.538 244.099 251.458 244.242 251.414L247.219 250.513L248.297 248.035C248.35 247.916 248.446 247.812 248.572 247.74C248.697 247.667 248.847 247.628 249 247.628C249.153 247.628 249.303 247.667 249.428 247.74C249.554 247.812 249.65 247.916 249.703 248.035L250.785 250.516L253.758 251.414C253.903 251.457 254.028 251.536 254.116 251.642C254.204 251.747 254.251 251.872 254.25 252Z" fill="white"/>
</g>
<g clip-path="url(#clip1_133_40)" filter="url(#filter1_f_133_40)">
<path d="M432.25 635C432.251 635.128 432.204 635.253 432.116 635.358C432.028 635.463 431.903 635.543 431.758 635.586L428.784 636.487L427.703 638.965C427.65 639.084 427.554 639.188 427.428 639.26C427.303 639.333 427.153 639.372 427 639.372C426.847 639.372 426.697 639.333 426.572 639.26C426.446 639.188 426.35 639.084 426.297 638.965L425.215 636.484L422.242 635.586C422.099 635.542 421.975 635.462 421.887 635.357C421.8 635.252 421.753 635.128 421.753 635C421.753 634.872 421.8 634.748 421.887 634.643C421.975 634.538 422.099 634.458 422.242 634.414L425.219 633.513L426.297 631.035C426.35 630.916 426.446 630.812 426.572 630.74C426.697 630.667 426.847 630.628 427 630.628C427.153 630.628 427.303 630.667 427.428 630.74C427.554 630.812 427.65 630.916 427.703 631.035L428.785 633.516L431.758 634.414C431.903 634.457 432.028 634.536 432.116 634.641C432.204 634.746 432.251 634.872 432.25 635Z" fill="white"/>
</g>
<g clip-path="url(#clip2_133_40)" filter="url(#filter2_f_133_40)">
<path d="M450.687 108.5C450.688 108.564 450.669 108.627 450.632 108.679C450.595 108.732 450.543 108.771 450.482 108.793L449.243 109.244L448.793 110.482C448.771 110.542 448.731 110.594 448.678 110.63C448.626 110.667 448.564 110.686 448.5 110.686C448.436 110.686 448.374 110.667 448.322 110.63C448.269 110.594 448.229 110.542 448.207 110.482L447.756 109.242L446.518 108.793C446.458 108.771 446.406 108.731 446.37 108.678C446.333 108.626 446.314 108.564 446.314 108.5C446.314 108.436 446.333 108.374 446.37 108.322C446.406 108.269 446.458 108.229 446.518 108.207L447.758 107.756L448.207 106.518C448.229 106.458 448.269 106.406 448.322 106.37C448.374 106.333 448.436 106.314 448.5 106.314C448.564 106.314 448.626 106.333 448.678 106.37C448.731 106.406 448.771 106.458 448.793 106.518L449.244 107.758L450.482 108.207C450.543 108.229 450.595 108.268 450.632 108.321C450.669 108.373 450.688 108.436 450.687 108.5Z" fill="white"/>
</g>
<g clip-path="url(#clip3_133_40)" filter="url(#filter3_f_133_40)">
<path d="M533.25 460C533.251 460.128 533.204 460.253 533.116 460.358C533.028 460.464 532.903 460.543 532.758 460.586L529.784 461.487L528.703 463.965C528.65 464.084 528.554 464.188 528.428 464.26C528.303 464.333 528.153 464.372 528 464.372C527.847 464.372 527.697 464.333 527.572 464.26C527.446 464.188 527.35 464.084 527.297 463.965L526.215 461.484L523.242 460.586C523.099 460.542 522.975 460.462 522.887 460.357C522.8 460.252 522.753 460.128 522.753 460C522.753 459.872 522.8 459.748 522.887 459.643C522.975 459.538 523.099 459.458 523.242 459.414L526.219 458.513L527.297 456.035C527.35 455.916 527.446 455.812 527.572 455.74C527.697 455.667 527.847 455.628 528 455.628C528.153 455.628 528.303 455.667 528.428 455.74C528.554 455.812 528.65 455.916 528.703 456.035L529.785 458.516L532.758 459.414C532.903 459.457 533.028 459.537 533.116 459.642C533.204 459.747 533.251 459.872 533.25 460Z" fill="white"/>
</g>
<g clip-path="url(#clip4_133_40)" filter="url(#filter4_f_133_40)">
<path d="M458.563 329.5C458.563 329.59 458.536 329.677 458.484 329.751C458.433 329.824 458.36 329.88 458.275 329.91L456.541 330.541L455.91 332.275C455.879 332.359 455.823 332.431 455.75 332.482C455.676 332.533 455.589 332.561 455.5 332.561C455.411 332.561 455.324 332.533 455.25 332.482C455.177 332.431 455.121 332.359 455.09 332.275L454.459 330.539L452.725 329.91C452.641 329.879 452.569 329.823 452.518 329.75C452.467 329.676 452.439 329.589 452.439 329.5C452.439 329.411 452.467 329.324 452.518 329.25C452.569 329.177 452.641 329.121 452.725 329.09L454.461 328.459L455.09 326.725C455.121 326.641 455.177 326.569 455.25 326.518C455.324 326.467 455.411 326.439 455.5 326.439C455.589 326.439 455.676 326.467 455.75 326.518C455.823 326.569 455.879 326.641 455.91 326.725L456.541 328.461L458.275 329.09C458.36 329.12 458.433 329.176 458.484 329.249C458.536 329.323 458.563 329.41 458.563 329.5Z" fill="white"/>
</g>
<g clip-path="url(#clip5_133_40)" filter="url(#filter5_f_133_40)">
<path d="M970.25 125C970.251 125.128 970.204 125.253 970.116 125.358C970.028 125.463 969.903 125.543 969.758 125.586L966.784 126.487L965.703 128.965C965.65 129.084 965.554 129.188 965.428 129.26C965.303 129.333 965.153 129.372 965 129.372C964.847 129.372 964.697 129.333 964.572 129.26C964.446 129.188 964.35 129.084 964.297 128.965L963.215 126.484L960.242 125.586C960.099 125.542 959.975 125.462 959.887 125.357C959.8 125.252 959.753 125.128 959.753 125C959.753 124.872 959.8 124.748 959.887 124.643C959.975 124.538 960.099 124.458 960.242 124.414L963.219 123.513L964.297 121.035C964.35 120.916 964.446 120.812 964.572 120.74C964.697 120.667 964.847 120.628 965 120.628C965.153 120.628 965.303 120.667 965.428 120.74C965.554 120.812 965.65 120.916 965.703 121.035L966.785 123.516L969.758 124.414C969.903 124.457 970.028 124.537 970.116 124.642C970.204 124.747 970.251 124.872 970.25 125Z" fill="white"/>
</g>
<g clip-path="url(#clip6_133_40)" filter="url(#filter6_f_133_40)">
<path d="M997.688 337.5C997.688 337.564 997.669 337.627 997.632 337.679C997.595 337.732 997.543 337.771 997.482 337.793L996.243 338.244L995.793 339.482C995.771 339.542 995.731 339.594 995.678 339.63C995.626 339.667 995.564 339.686 995.5 339.686C995.436 339.686 995.374 339.667 995.322 339.63C995.269 339.594 995.229 339.542 995.207 339.482L994.756 338.242L993.518 337.793C993.458 337.771 993.406 337.731 993.37 337.678C993.333 337.626 993.314 337.564 993.314 337.5C993.314 337.436 993.333 337.374 993.37 337.322C993.406 337.269 993.458 337.229 993.518 337.207L994.758 336.756L995.207 335.518C995.229 335.458 995.269 335.406 995.322 335.37C995.374 335.333 995.436 335.314 995.5 335.314C995.564 335.314 995.626 335.333 995.678 335.37C995.731 335.406 995.771 335.458 995.793 335.518L996.244 336.758L997.482 337.207C997.543 337.228 997.595 337.268 997.632 337.321C997.669 337.373 997.688 337.436 997.688 337.5Z" fill="white"/>
</g>
<g clip-path="url(#clip7_133_40)" filter="url(#filter7_f_133_40)">
<path d="M1308.25 676C1308.25 676.128 1308.2 676.253 1308.12 676.358C1308.03 676.463 1307.9 676.543 1307.76 676.586L1304.78 677.487L1303.7 679.965C1303.65 680.084 1303.55 680.188 1303.43 680.26C1303.3 680.333 1303.15 680.372 1303 680.372C1302.85 680.372 1302.7 680.333 1302.57 680.26C1302.45 680.188 1302.35 680.084 1302.3 679.965L1301.22 677.484L1298.24 676.586C1298.1 676.542 1297.97 676.462 1297.89 676.357C1297.8 676.252 1297.75 676.128 1297.75 676C1297.75 675.872 1297.8 675.748 1297.89 675.643C1297.97 675.538 1298.1 675.458 1298.24 675.414L1301.22 674.513L1302.3 672.035C1302.35 671.916 1302.45 671.812 1302.57 671.74C1302.7 671.667 1302.85 671.628 1303 671.628C1303.15 671.628 1303.3 671.667 1303.43 671.74C1303.55 671.812 1303.65 671.916 1303.7 672.035L1304.78 674.516L1307.76 675.414C1307.9 675.457 1308.03 675.536 1308.12 675.641C1308.2 675.746 1308.25 675.872 1308.25 676Z" fill="white"/>
</g>
<g clip-path="url(#clip8_133_40)" filter="url(#filter8_f_133_40)">
<path d="M1210.25 542C1210.25 542.128 1210.2 542.253 1210.12 542.358C1210.03 542.464 1209.9 542.543 1209.76 542.586L1206.78 543.487L1205.7 545.965C1205.65 546.084 1205.55 546.188 1205.43 546.26C1205.3 546.333 1205.15 546.372 1205 546.372C1204.85 546.372 1204.7 546.333 1204.57 546.26C1204.45 546.188 1204.35 546.084 1204.3 545.965L1203.22 543.484L1200.24 542.586C1200.1 542.542 1199.97 542.462 1199.89 542.357C1199.8 542.252 1199.75 542.128 1199.75 542C1199.75 541.872 1199.8 541.748 1199.89 541.643C1199.97 541.538 1200.1 541.458 1200.24 541.414L1203.22 540.513L1204.3 538.035C1204.35 537.916 1204.45 537.812 1204.57 537.74C1204.7 537.667 1204.85 537.628 1205 537.628C1205.15 537.628 1205.3 537.667 1205.43 537.74C1205.55 537.812 1205.65 537.916 1205.7 538.035L1206.78 540.516L1209.76 541.414C1209.9 541.457 1210.03 541.537 1210.12 541.642C1210.2 541.747 1210.25 541.872 1210.25 542Z" fill="white"/>
</g>
<g clip-path="url(#clip9_133_40)" filter="url(#filter9_f_133_40)">
<path d="M1419.25 34C1419.25 34.1282 1419.2 34.2535 1419.12 34.3585C1419.03 34.4635 1418.9 34.543 1418.76 34.5859L1415.78 35.4871L1414.7 37.9648C1414.65 38.0845 1414.55 38.1876 1414.43 38.2605C1414.3 38.3333 1414.15 38.3724 1414 38.3724C1413.85 38.3724 1413.7 38.3333 1413.57 38.2605C1413.45 38.1876 1413.35 38.0845 1413.3 37.9648L1412.22 35.4844L1409.24 34.5859C1409.1 34.5415 1408.97 34.4616 1408.89 34.3569C1408.8 34.2521 1408.75 34.1276 1408.75 34C1408.75 33.8724 1408.8 33.7479 1408.89 33.6431C1408.97 33.5384 1409.1 33.4585 1409.24 33.4141L1412.22 32.5129L1413.3 30.0352C1413.35 29.9155 1413.45 29.8124 1413.57 29.7395C1413.7 29.6667 1413.85 29.6276 1414 29.6276C1414.15 29.6276 1414.3 29.6667 1414.43 29.7395C1414.55 29.8124 1414.65 29.9155 1414.7 30.0352L1415.78 32.5156L1418.76 33.4141C1418.9 33.457 1419.03 33.5365 1419.12 33.6415C1419.2 33.7465 1419.25 33.8718 1419.25 34Z" fill="white"/>
</g>
<g clip-path="url(#clip10_133_40)" filter="url(#filter10_f_133_40)">
<path d="M1217.56 198.5C1217.56 198.59 1217.54 198.677 1217.48 198.751C1217.43 198.824 1217.36 198.88 1217.28 198.91L1215.54 199.541L1214.91 201.275C1214.88 201.359 1214.82 201.431 1214.75 201.482C1214.68 201.533 1214.59 201.561 1214.5 201.561C1214.41 201.561 1214.32 201.533 1214.25 201.482C1214.18 201.431 1214.12 201.359 1214.09 201.275L1213.46 199.539L1211.72 198.91C1211.64 198.879 1211.57 198.823 1211.52 198.75C1211.47 198.676 1211.44 198.589 1211.44 198.5C1211.44 198.411 1211.47 198.324 1211.52 198.25C1211.57 198.177 1211.64 198.121 1211.72 198.09L1213.46 197.459L1214.09 195.725C1214.12 195.641 1214.18 195.569 1214.25 195.518C1214.32 195.467 1214.41 195.439 1214.5 195.439C1214.59 195.439 1214.68 195.467 1214.75 195.518C1214.82 195.569 1214.88 195.641 1214.91 195.725L1215.54 197.461L1217.28 198.09C1217.36 198.12 1217.43 198.176 1217.48 198.249C1217.54 198.323 1217.56 198.41 1217.56 198.5Z" fill="white"/>
</g>
<g opacity="0.5" clip-path="url(#clip11_133_40)" filter="url(#filter11_f_133_40)">
<path d="M1244.69 104.5C1244.69 104.564 1244.67 104.627 1244.63 104.679C1244.6 104.732 1244.54 104.771 1244.48 104.793L1243.24 105.244L1242.79 106.482C1242.77 106.542 1242.73 106.594 1242.68 106.63C1242.63 106.667 1242.56 106.686 1242.5 106.686C1242.44 106.686 1242.37 106.667 1242.32 106.63C1242.27 106.594 1242.23 106.542 1242.21 106.482L1241.76 105.242L1240.52 104.793C1240.46 104.771 1240.41 104.731 1240.37 104.678C1240.33 104.626 1240.31 104.564 1240.31 104.5C1240.31 104.436 1240.33 104.374 1240.37 104.322C1240.41 104.269 1240.46 104.229 1240.52 104.207L1241.76 103.756L1242.21 102.518C1242.23 102.458 1242.27 102.406 1242.32 102.37C1242.37 102.333 1242.44 102.314 1242.5 102.314C1242.56 102.314 1242.63 102.333 1242.68 102.37C1242.73 102.406 1242.77 102.458 1242.79 102.518L1243.24 103.758L1244.48 104.207C1244.54 104.229 1244.6 104.268 1244.63 104.321C1244.67 104.373 1244.69 104.436 1244.69 104.5Z" fill="white"/>
</g>
<g clip-path="url(#clip12_133_40)" filter="url(#filter12_f_133_40)">
<path d="M1154.56 338.5C1154.56 338.59 1154.54 338.677 1154.48 338.751C1154.43 338.824 1154.36 338.88 1154.28 338.91L1152.54 339.541L1151.91 341.275C1151.88 341.359 1151.82 341.431 1151.75 341.482C1151.68 341.533 1151.59 341.561 1151.5 341.561C1151.41 341.561 1151.32 341.533 1151.25 341.482C1151.18 341.431 1151.12 341.359 1151.09 341.275L1150.46 339.539L1148.72 338.91C1148.64 338.879 1148.57 338.823 1148.52 338.75C1148.47 338.676 1148.44 338.589 1148.44 338.5C1148.44 338.411 1148.47 338.324 1148.52 338.25C1148.57 338.177 1148.64 338.121 1148.72 338.09L1150.46 337.459L1151.09 335.725C1151.12 335.641 1151.18 335.569 1151.25 335.518C1151.32 335.467 1151.41 335.439 1151.5 335.439C1151.59 335.439 1151.68 335.467 1151.75 335.518C1151.82 335.569 1151.88 335.641 1151.91 335.725L1152.54 337.461L1154.28 338.09C1154.36 338.12 1154.43 338.176 1154.48 338.249C1154.54 338.323 1154.56 338.41 1154.56 338.5Z" fill="white"/>
</g>
<g clip-path="url(#clip13_133_40)" filter="url(#filter13_f_133_40)">
<path d="M1080.56 458.5C1080.56 458.59 1080.54 458.677 1080.48 458.751C1080.43 458.824 1080.36 458.88 1080.28 458.91L1078.54 459.541L1077.91 461.275C1077.88 461.359 1077.82 461.431 1077.75 461.482C1077.68 461.533 1077.59 461.561 1077.5 461.561C1077.41 461.561 1077.32 461.533 1077.25 461.482C1077.18 461.431 1077.12 461.359 1077.09 461.275L1076.46 459.539L1074.72 458.91C1074.64 458.879 1074.57 458.823 1074.52 458.75C1074.47 458.676 1074.44 458.589 1074.44 458.5C1074.44 458.411 1074.47 458.324 1074.52 458.25C1074.57 458.177 1074.64 458.121 1074.72 458.09L1076.46 457.459L1077.09 455.725C1077.12 455.641 1077.18 455.569 1077.25 455.518C1077.32 455.467 1077.41 455.439 1077.5 455.439C1077.59 455.439 1077.68 455.467 1077.75 455.518C1077.82 455.569 1077.88 455.641 1077.91 455.725L1078.54 457.461L1080.28 458.09C1080.36 458.12 1080.43 458.176 1080.48 458.249C1080.54 458.323 1080.56 458.41 1080.56 458.5Z" fill="white"/>
</g>
<g clip-path="url(#clip14_133_40)" filter="url(#filter14_f_133_40)">
<path d="M1375.56 468.5C1375.56 468.59 1375.54 468.677 1375.48 468.751C1375.43 468.824 1375.36 468.88 1375.28 468.91L1373.54 469.541L1372.91 471.275C1372.88 471.359 1372.82 471.431 1372.75 471.482C1372.68 471.533 1372.59 471.561 1372.5 471.561C1372.41 471.561 1372.32 471.533 1372.25 471.482C1372.18 471.431 1372.12 471.359 1372.09 471.275L1371.46 469.539L1369.72 468.91C1369.64 468.879 1369.57 468.823 1369.52 468.75C1369.47 468.676 1369.44 468.589 1369.44 468.5C1369.44 468.411 1369.47 468.324 1369.52 468.25C1369.57 468.177 1369.64 468.121 1369.72 468.09L1371.46 467.459L1372.09 465.725C1372.12 465.641 1372.18 465.569 1372.25 465.518C1372.32 465.467 1372.41 465.439 1372.5 465.439C1372.59 465.439 1372.68 465.467 1372.75 465.518C1372.82 465.569 1372.88 465.641 1372.91 465.725L1373.54 467.461L1375.28 468.09C1375.36 468.12 1375.43 468.176 1375.48 468.249C1375.54 468.323 1375.56 468.41 1375.56 468.5Z" fill="white"/>
</g>
<g clip-path="url(#clip15_133_40)" filter="url(#filter15_f_133_40)">
<path d="M647.562 619.5C647.563 619.59 647.536 619.677 647.484 619.751C647.433 619.824 647.36 619.88 647.275 619.91L645.541 620.541L644.91 622.275C644.879 622.359 644.823 622.431 644.75 622.482C644.676 622.533 644.589 622.561 644.5 622.561C644.411 622.561 644.323 622.533 644.25 622.482C644.177 622.431 644.121 622.359 644.09 622.275L643.459 620.539L641.725 619.91C641.641 619.879 641.569 619.823 641.518 619.75C641.467 619.676 641.439 619.589 641.439 619.5C641.439 619.411 641.467 619.323 641.518 619.25C641.569 619.177 641.641 619.121 641.725 619.09L643.461 618.459L644.09 616.725C644.121 616.641 644.177 616.569 644.25 616.518C644.323 616.467 644.411 616.439 644.5 616.439C644.589 616.439 644.676 616.467 644.75 616.518C644.823 616.569 644.879 616.641 644.91 616.725L645.541 618.461L647.275 619.09C647.36 619.12 647.433 619.176 647.484 619.249C647.536 619.323 647.563 619.41 647.562 619.5Z" fill="white"/>
</g>
<g clip-path="url(#clip16_133_40)" filter="url(#filter16_f_133_40)">
<path d="M235.687 609.5C235.688 609.564 235.669 609.627 235.632 609.679C235.595 609.732 235.543 609.772 235.482 609.793L234.243 610.244L233.793 611.482C233.771 611.542 233.731 611.594 233.678 611.63C233.626 611.667 233.564 611.686 233.5 611.686C233.436 611.686 233.374 611.667 233.322 611.63C233.269 611.594 233.229 611.542 233.207 611.482L232.756 610.242L231.518 609.793C231.458 609.771 231.406 609.731 231.37 609.678C231.333 609.626 231.314 609.564 231.314 609.5C231.314 609.436 231.333 609.374 231.37 609.322C231.406 609.269 231.458 609.229 231.518 609.207L232.758 608.756L233.207 607.518C233.229 607.458 233.269 607.406 233.322 607.37C233.374 607.333 233.436 607.314 233.5 607.314C233.564 607.314 233.626 607.333 233.678 607.37C233.731 607.406 233.771 607.458 233.793 607.518L234.244 608.758L235.482 609.207C235.543 609.229 235.595 609.268 235.632 609.321C235.669 609.373 235.688 609.436 235.687 609.5Z" fill="white"/>
</g>
<g clip-path="url(#clip17_133_40)" filter="url(#filter17_f_133_40)">
<path d="M218.687 455.5C218.688 455.564 218.669 455.627 218.632 455.679C218.595 455.732 218.543 455.771 218.482 455.793L217.243 456.244L216.793 457.482C216.771 457.542 216.731 457.594 216.678 457.63C216.626 457.667 216.564 457.686 216.5 457.686C216.436 457.686 216.374 457.667 216.322 457.63C216.269 457.594 216.229 457.542 216.207 457.482L215.756 456.242L214.518 455.793C214.458 455.771 214.406 455.731 214.37 455.678C214.333 455.626 214.314 455.564 214.314 455.5C214.314 455.436 214.333 455.374 214.37 455.322C214.406 455.269 214.458 455.229 214.518 455.207L215.758 454.756L216.207 453.518C216.229 453.458 216.269 453.406 216.322 453.37C216.374 453.333 216.436 453.314 216.5 453.314C216.564 453.314 216.626 453.333 216.678 453.37C216.731 453.406 216.771 453.458 216.793 453.518L217.244 454.758L218.482 455.207C218.543 455.228 218.595 455.268 218.632 455.321C218.669 455.373 218.688 455.436 218.687 455.5Z" fill="white"/>
</g>
<g clip-path="url(#clip18_133_40)" filter="url(#filter18_f_133_40)">
<path d="M40.6875 682.5C40.688 682.564 40.6685 682.627 40.6318 682.679C40.595 682.732 40.5428 682.772 40.4824 682.793L39.2434 683.244L38.793 684.482C38.7708 684.542 38.7308 684.594 38.6784 684.63C38.6261 684.667 38.5638 684.686 38.5 684.686C38.4362 684.686 38.3739 684.667 38.3216 684.63C38.2692 684.594 38.2292 684.542 38.207 684.482L37.7564 683.242L36.5176 682.793C36.4578 682.771 36.4062 682.731 36.3698 682.678C36.3333 682.626 36.3138 682.564 36.3138 682.5C36.3138 682.436 36.3333 682.374 36.3698 682.322C36.4062 682.269 36.4578 682.229 36.5176 682.207L37.7578 681.756L38.207 680.518C38.2292 680.458 38.2692 680.406 38.3216 680.37C38.3739 680.333 38.4362 680.314 38.5 680.314C38.5638 680.314 38.6261 680.333 38.6784 680.37C38.7308 680.406 38.7708 680.458 38.793 680.518L39.2436 681.758L40.4824 682.207C40.5428 682.229 40.595 682.268 40.6318 682.321C40.6685 682.373 40.688 682.436 40.6875 682.5Z" fill="white"/>
</g>
<g clip-path="url(#clip19_133_40)" filter="url(#filter19_f_133_40)">
<path d="M103.688 402.5C103.688 402.564 103.669 402.627 103.632 402.679C103.595 402.732 103.543 402.771 103.482 402.793L102.243 403.244L101.793 404.482C101.771 404.542 101.731 404.594 101.678 404.63C101.626 404.667 101.564 404.686 101.5 404.686C101.436 404.686 101.374 404.667 101.322 404.63C101.269 404.594 101.229 404.542 101.207 404.482L100.756 403.242L99.5176 402.793C99.4578 402.771 99.4062 402.731 99.3698 402.678C99.3334 402.626 99.3138 402.564 99.3138 402.5C99.3138 402.436 99.3334 402.374 99.3698 402.322C99.4062 402.269 99.4578 402.229 99.5176 402.207L100.758 401.756L101.207 400.518C101.229 400.458 101.269 400.406 101.322 400.37C101.374 400.333 101.436 400.314 101.5 400.314C101.564 400.314 101.626 400.333 101.678 400.37C101.731 400.406 101.771 400.458 101.793 400.518L102.244 401.758L103.482 402.207C103.543 402.228 103.595 402.268 103.632 402.321C103.669 402.373 103.688 402.436 103.688 402.5Z" fill="white"/>
</g>
<g clip-path="url(#clip20_133_40)" filter="url(#filter20_f_133_40)">
<path d="M57.6875 132.5C57.688 132.564 57.6685 132.627 57.6318 132.679C57.595 132.732 57.5428 132.771 57.4824 132.793L56.2434 133.244L55.793 134.482C55.7708 134.542 55.7308 134.594 55.6784 134.63C55.6261 134.667 55.5638 134.686 55.5 134.686C55.4362 134.686 55.3739 134.667 55.3216 134.63C55.2692 134.594 55.2292 134.542 55.207 134.482L54.7564 133.242L53.5176 132.793C53.4578 132.771 53.4062 132.731 53.3698 132.678C53.3333 132.626 53.3138 132.564 53.3138 132.5C53.3138 132.436 53.3333 132.374 53.3698 132.322C53.4062 132.269 53.4578 132.229 53.5176 132.207L54.7578 131.756L55.207 130.518C55.2292 130.458 55.2692 130.406 55.3216 130.37C55.3739 130.333 55.4362 130.314 55.5 130.314C55.5638 130.314 55.6261 130.333 55.6784 130.37C55.7308 130.406 55.7708 130.458 55.793 130.518L56.2436 131.758L57.4824 132.207C57.5428 132.228 57.595 132.268 57.6318 132.321C57.6685 132.373 57.688 132.436 57.6875 132.5Z" fill="white"/>
</g>
<g clip-path="url(#clip21_133_40)" filter="url(#filter21_f_133_40)">
<path d="M115.688 256.5C115.688 256.564 115.669 256.627 115.632 256.679C115.595 256.732 115.543 256.772 115.482 256.793L114.243 257.244L113.793 258.482C113.771 258.542 113.731 258.594 113.678 258.63C113.626 258.667 113.564 258.686 113.5 258.686C113.436 258.686 113.374 258.667 113.322 258.63C113.269 258.594 113.229 258.542 113.207 258.482L112.756 257.242L111.518 256.793C111.458 256.771 111.406 256.731 111.37 256.678C111.333 256.626 111.314 256.564 111.314 256.5C111.314 256.436 111.333 256.374 111.37 256.322C111.406 256.269 111.458 256.229 111.518 256.207L112.758 255.756L113.207 254.518C113.229 254.458 113.269 254.406 113.322 254.37C113.374 254.333 113.436 254.314 113.5 254.314C113.564 254.314 113.626 254.333 113.678 254.37C113.731 254.406 113.771 254.458 113.793 254.518L114.244 255.758L115.482 256.207C115.543 256.229 115.595 256.268 115.632 256.321C115.669 256.373 115.688 256.436 115.688 256.5Z" fill="white"/>
</g>
<g clip-path="url(#clip22_133_40)" filter="url(#filter22_f_133_40)">
<path d="M206.688 150.5C206.688 150.564 206.669 150.627 206.632 150.679C206.595 150.732 206.543 150.771 206.482 150.793L205.243 151.244L204.793 152.482C204.771 152.542 204.731 152.594 204.678 152.63C204.626 152.667 204.564 152.686 204.5 152.686C204.436 152.686 204.374 152.667 204.322 152.63C204.269 152.594 204.229 152.542 204.207 152.482L203.756 151.242L202.518 150.793C202.458 150.771 202.406 150.731 202.37 150.678C202.333 150.626 202.314 150.564 202.314 150.5C202.314 150.436 202.333 150.374 202.37 150.322C202.406 150.269 202.458 150.229 202.518 150.207L203.758 149.756L204.207 148.518C204.229 148.458 204.269 148.406 204.322 148.37C204.374 148.333 204.436 148.314 204.5 148.314C204.564 148.314 204.626 148.333 204.678 148.37C204.731 148.406 204.771 148.458 204.793 148.518L205.244 149.758L206.482 150.207C206.543 150.228 206.595 150.268 206.632 150.321C206.669 150.373 206.688 150.436 206.688 150.5Z" fill="white"/>
</g>
<g clip-path="url(#clip23_133_40)" filter="url(#filter23_f_133_40)">
<path d="M379.687 517.5C379.688 517.564 379.669 517.627 379.632 517.679C379.595 517.732 379.543 517.771 379.482 517.793L378.243 518.244L377.793 519.482C377.771 519.542 377.731 519.594 377.678 519.63C377.626 519.667 377.564 519.686 377.5 519.686C377.436 519.686 377.374 519.667 377.322 519.63C377.269 519.594 377.229 519.542 377.207 519.482L376.756 518.242L375.518 517.793C375.458 517.771 375.406 517.731 375.37 517.678C375.333 517.626 375.314 517.564 375.314 517.5C375.314 517.436 375.333 517.374 375.37 517.322C375.406 517.269 375.458 517.229 375.518 517.207L376.758 516.756L377.207 515.518C377.229 515.458 377.269 515.406 377.322 515.37C377.374 515.333 377.436 515.314 377.5 515.314C377.564 515.314 377.626 515.333 377.678 515.37C377.731 515.406 377.771 515.458 377.793 515.518L378.244 516.758L379.482 517.207C379.543 517.228 379.595 517.268 379.632 517.321C379.669 517.373 379.688 517.436 379.687 517.5Z" fill="white"/>
</g>
<g clip-path="url(#clip24_133_40)" filter="url(#filter24_f_133_40)">
<path d="M120.688 589.5C120.688 589.564 120.669 589.627 120.632 589.679C120.595 589.732 120.543 589.772 120.482 589.793L119.243 590.244L118.793 591.482C118.771 591.542 118.731 591.594 118.678 591.63C118.626 591.667 118.564 591.686 118.5 591.686C118.436 591.686 118.374 591.667 118.322 591.63C118.269 591.594 118.229 591.542 118.207 591.482L117.756 590.242L116.518 589.793C116.458 589.771 116.406 589.731 116.37 589.678C116.333 589.626 116.314 589.564 116.314 589.5C116.314 589.436 116.333 589.374 116.37 589.322C116.406 589.269 116.458 589.229 116.518 589.207L117.758 588.756L118.207 587.518C118.229 587.458 118.269 587.406 118.322 587.37C118.374 587.333 118.436 587.314 118.5 587.314C118.564 587.314 118.626 587.333 118.678 587.37C118.731 587.406 118.771 587.458 118.793 587.518L119.244 588.758L120.482 589.207C120.543 589.229 120.595 589.268 120.632 589.321C120.669 589.373 120.688 589.436 120.688 589.5Z" fill="white"/>
</g>
<g clip-path="url(#clip25_133_40)" filter="url(#filter25_f_133_40)">
<path d="M1358.56 310.5C1358.56 310.59 1358.54 310.677 1358.48 310.751C1358.43 310.824 1358.36 310.88 1358.28 310.91L1356.54 311.541L1355.91 313.275C1355.88 313.359 1355.82 313.431 1355.75 313.482C1355.68 313.533 1355.59 313.561 1355.5 313.561C1355.41 313.561 1355.32 313.533 1355.25 313.482C1355.18 313.431 1355.12 313.359 1355.09 313.275L1354.46 311.539L1352.72 310.91C1352.64 310.879 1352.57 310.823 1352.52 310.75C1352.47 310.676 1352.44 310.589 1352.44 310.5C1352.44 310.411 1352.47 310.324 1352.52 310.25C1352.57 310.177 1352.64 310.121 1352.72 310.09L1354.46 309.459L1355.09 307.725C1355.12 307.641 1355.18 307.569 1355.25 307.518C1355.32 307.467 1355.41 307.439 1355.5 307.439C1355.59 307.439 1355.68 307.467 1355.75 307.518C1355.82 307.569 1355.88 307.641 1355.91 307.725L1356.54 309.461L1358.28 310.09C1358.36 310.12 1358.43 310.176 1358.48 310.249C1358.54 310.323 1358.56 310.41 1358.56 310.5Z" fill="white"/>
</g>
<g clip-path="url(#clip26_133_40)" filter="url(#filter26_f_133_40)">
<path d="M732.562 90.5C732.563 90.5897 732.536 90.6774 732.484 90.7509C732.433 90.8244 732.36 90.8801 732.275 90.9102L730.541 91.541L729.91 93.2754C729.879 93.3591 729.823 93.4313 729.75 93.4823C729.676 93.5333 729.589 93.5606 729.5 93.5606C729.411 93.5606 729.323 93.5333 729.25 93.4823C729.177 93.4313 729.121 93.3591 729.09 93.2754L728.459 91.5391L726.725 90.9102C726.641 90.8791 726.569 90.8231 726.518 90.7498C726.467 90.6765 726.439 90.5893 726.439 90.5C726.439 90.4107 726.467 90.3235 726.518 90.2502C726.569 90.1769 726.641 90.1209 726.725 90.0898L728.461 89.459L729.09 87.7246C729.121 87.6409 729.177 87.5687 729.25 87.5177C729.323 87.4667 729.411 87.4394 729.5 87.4394C729.589 87.4394 729.676 87.4667 729.75 87.5177C729.823 87.5687 729.879 87.6409 729.91 87.7246L730.541 89.4609L732.275 90.0898C732.36 90.1199 732.433 90.1756 732.484 90.2491C732.536 90.3226 732.563 90.4103 732.562 90.5Z" fill="white"/>
</g>
<g clip-path="url(#clip27_133_40)" filter="url(#filter27_f_133_40)">
<path d="M924.562 605.5C924.563 605.59 924.536 605.677 924.484 605.751C924.433 605.824 924.36 605.88 924.275 605.91L922.541 606.541L921.91 608.275C921.879 608.359 921.823 608.431 921.75 608.482C921.676 608.533 921.589 608.561 921.5 608.561C921.411 608.561 921.323 608.533 921.25 608.482C921.177 608.431 921.121 608.359 921.09 608.275L920.459 606.539L918.725 605.91C918.641 605.879 918.569 605.823 918.518 605.75C918.467 605.676 918.439 605.589 918.439 605.5C918.439 605.411 918.467 605.323 918.518 605.25C918.569 605.177 918.641 605.121 918.725 605.09L920.461 604.459L921.09 602.725C921.121 602.641 921.177 602.569 921.25 602.518C921.323 602.467 921.411 602.439 921.5 602.439C921.589 602.439 921.676 602.467 921.75 602.518C921.823 602.569 921.879 602.641 921.91 602.725L922.541 604.461L924.275 605.09C924.36 605.12 924.433 605.176 924.484 605.249C924.536 605.323 924.563 605.41 924.562 605.5Z" fill="white"/>
</g>
<defs>
<filter id="filter0_f_133_40" x="239" y="243" width="20" height="18" filterUnits="userSpaceOnUse" color-interpolation-filters="sRGB">
<feFlood flood-opacity="0" result="BackgroundImageFix"/>
<feBlend mode="normal" in="SourceGraphic" in2="BackgroundImageFix" result="shape"/>
<feGaussianBlur stdDeviation="2" result="effect1_foregroundBlur_133_40"/>
</filter>
<filter id="filter1_f_133_40" x="417" y="626" width="20" height="18" filterUnits="userSpaceOnUse" color-interpolation-filters="sRGB">
<feFlood flood-opacity="0" result="BackgroundImageFix"/>
<feBlend mode="normal" in="SourceGraphic" in2="BackgroundImageFix" result="shape"/>
<feGaussianBlur stdDeviation="2" result="effect1_foregroundBlur_133_40"/>
</filter>
<filter id="filter2_f_133_40" x="442" y="102" width="13" height="13" filterUnits="userSpaceOnUse" color-interpolation-filters="sRGB">
<feFlood flood-opacity="0" result="BackgroundImageFix"/>
<feBlend mode="normal" in="SourceGraphic" in2="BackgroundImageFix" result="shape"/>
<feGaussianBlur stdDeviation="2" result="effect1_foregroundBlur_133_40"/>
</filter>
<filter id="filter3_f_133_40" x="518" y="451" width="20" height="18" filterUnits="userSpaceOnUse" color-interpolation-filters="sRGB">
<feFlood flood-opacity="0" result="BackgroundImageFix"/>
<feBlend mode="normal" in="SourceGraphic" in2="BackgroundImageFix" result="shape"/>
<feGaussianBlur stdDeviation="2" result="effect1_foregroundBlur_133_40"/>
</filter>
<filter id="filter4_f_133_40" x="448" y="322" width="15" height="15" filterUnits="userSpaceOnUse" color-interpolation-filters="sRGB">
<feFlood flood-opacity="0" result="BackgroundImageFix"/>
<feBlend mode="normal" in="SourceGraphic" in2="BackgroundImageFix" result="shape"/>
<feGaussianBlur stdDeviation="2" result="effect1_foregroundBlur_133_40"/>
</filter>
<filter id="filter5_f_133_40" x="955" y="116" width="20" height="18" filterUnits="userSpaceOnUse" color-interpolation-filters="sRGB">
<feFlood flood-opacity="0" result="BackgroundImageFix"/>
<feBlend mode="normal" in="SourceGraphic" in2="BackgroundImageFix" result="shape"/>
<feGaussianBlur stdDeviation="2" result="effect1_foregroundBlur_133_40"/>
</filter>
<filter id="filter6_f_133_40" x="989" y="331" width="13" height="13" filterUnits="userSpaceOnUse" color-interpolation-filters="sRGB">
<feFlood flood-opacity="0" result="BackgroundImageFix"/>
<feBlend mode="normal" in="SourceGraphic" in2="BackgroundImageFix" result="shape"/>
<feGaussianBlur stdDeviation="2" result="effect1_foregroundBlur_133_40"/>
</filter>
<filter id="filter7_f_133_40" x="1293" y="667" width="20" height="18" filterUnits="userSpaceOnUse" color-interpolation-filters="sRGB">
<feFlood flood-opacity="0" result="BackgroundImageFix"/>
<feBlend mode="normal" in="SourceGraphic" in2="BackgroundImageFix" result="shape"/>
<feGaussianBlur stdDeviation="2" result="effect1_foregroundBlur_133_40"/>
</filter>
<filter id="filter8_f_133_40" x="1195" y="533" width="20" height="18" filterUnits="userSpaceOnUse" color-interpolation-filters="sRGB">
<feFlood flood-opacity="0" result="BackgroundImageFix"/>
<feBlend mode="normal" in="SourceGraphic" in2="BackgroundImageFix" result="shape"/>
<feGaussianBlur stdDeviation="2" result="effect1_foregroundBlur_133_40"/>
</filter>
<filter id="filter9_f_133_40" x="1404" y="25" width="20" height="18" filterUnits="userSpaceOnUse" color-interpolation-filters="sRGB">
<feFlood flood-opacity="0" result="BackgroundImageFix"/>
<feBlend mode="normal" in="SourceGraphic" in2="BackgroundImageFix" result="shape"/>
<feGaussianBlur stdDeviation="2" result="effect1_foregroundBlur_133_40"/>
</filter>
<filter id="filter10_f_133_40" x="1207" y="191" width="15" height="15" filterUnits="userSpaceOnUse" color-interpolation-filters="sRGB">
<feFlood flood-opacity="0" result="BackgroundImageFix"/>
<feBlend mode="normal" in="SourceGraphic" in2="BackgroundImageFix" result="shape"/>
<feGaussianBlur stdDeviation="2" result="effect1_foregroundBlur_133_40"/>
</filter>
<filter id="filter11_f_133_40" x="1236" y="98" width="13" height="13" filterUnits="userSpaceOnUse" color-interpolation-filters="sRGB">
<feFlood flood-opacity="0" result="BackgroundImageFix"/>
<feBlend mode="normal" in="SourceGraphic" in2="BackgroundImageFix" result="shape"/>
<feGaussianBlur stdDeviation="2" result="effect1_foregroundBlur_133_40"/>
</filter>
<filter id="filter12_f_133_40" x="1144" y="331" width="15" height="15" filterUnits="userSpaceOnUse" color-interpolation-filters="sRGB">
<feFlood flood-opacity="0" result="BackgroundImageFix"/>
<feBlend mode="normal" in="SourceGraphic" in2="BackgroundImageFix" result="shape"/>
<feGaussianBlur stdDeviation="2" result="effect1_foregroundBlur_133_40"/>
</filter>
<filter id="filter13_f_133_40" x="1070" y="451" width="15" height="15" filterUnits="userSpaceOnUse" color-interpolation-filters="sRGB">
<feFlood flood-opacity="0" result="BackgroundImageFix"/>
<feBlend mode="normal" in="SourceGraphic" in2="BackgroundImageFix" result="shape"/>
<feGaussianBlur stdDeviation="2" result="effect1_foregroundBlur_133_40"/>
</filter>
<filter id="filter14_f_133_40" x="1365" y="461" width="15" height="15" filterUnits="userSpaceOnUse" color-interpolation-filters="sRGB">
<feFlood flood-opacity="0" result="BackgroundImageFix"/>
<feBlend mode="normal" in="SourceGraphic" in2="BackgroundImageFix" result="shape"/>
<feGaussianBlur stdDeviation="2" result="effect1_foregroundBlur_133_40"/>
</filter>
<filter id="filter15_f_133_40" x="637" y="612" width="15" height="15" filterUnits="userSpaceOnUse" color-interpolation-filters="sRGB">
<feFlood flood-opacity="0" result="BackgroundImageFix"/>
<feBlend mode="normal" in="SourceGraphic" in2="BackgroundImageFix" result="shape"/>
<feGaussianBlur stdDeviation="2" result="effect1_foregroundBlur_133_40"/>
</filter>
<filter id="filter16_f_133_40" x="227" y="603" width="13" height="13" filterUnits="userSpaceOnUse" color-interpolation-filters="sRGB">
<feFlood flood-opacity="0" result="BackgroundImageFix"/>
<feBlend mode="normal" in="SourceGraphic" in2="BackgroundImageFix" result="shape"/>
<feGaussianBlur stdDeviation="2" result="effect1_foregroundBlur_133_40"/>
</filter>
<filter id="filter17_f_133_40" x="210" y="449" width="13" height="13" filterUnits="userSpaceOnUse" color-interpolation-filters="sRGB">
<feFlood flood-opacity="0" result="BackgroundImageFix"/>
<feBlend mode="normal" in="SourceGraphic" in2="BackgroundImageFix" result="shape"/>
<feGaussianBlur stdDeviation="2" result="effect1_foregroundBlur_133_40"/>
</filter>
<filter id="filter18_f_133_40" x="32" y="676" width="13" height="13" filterUnits="userSpaceOnUse" color-interpolation-filters="sRGB">
<feFlood flood-opacity="0" result="BackgroundImageFix"/>
<feBlend mode="normal" in="SourceGraphic" in2="BackgroundImageFix" result="shape"/>
<feGaussianBlur stdDeviation="2" result="effect1_foregroundBlur_133_40"/>
</filter>
<filter id="filter19_f_133_40" x="95" y="396" width="13" height="13" filterUnits="userSpaceOnUse" color-interpolation-filters="sRGB">
<feFlood flood-opacity="0" result="BackgroundImageFix"/>
<feBlend mode="normal" in="SourceGraphic" in2="BackgroundImageFix" result="shape"/>
<feGaussianBlur stdDeviation="2" result="effect1_foregroundBlur_133_40"/>
</filter>
<filter id="filter20_f_133_40" x="49" y="126" width="13" height="13" filterUnits="userSpaceOnUse" color-interpolation-filters="sRGB">
<feFlood flood-opacity="0" result="BackgroundImageFix"/>
<feBlend mode="normal" in="SourceGraphic" in2="BackgroundImageFix" result="shape"/>
<feGaussianBlur stdDeviation="2" result="effect1_foregroundBlur_133_40"/>
</filter>
<filter id="filter21_f_133_40" x="107" y="250" width="13" height="13" filterUnits="userSpaceOnUse" color-interpolation-filters="sRGB">
<feFlood flood-opacity="0" result="BackgroundImageFix"/>
<feBlend mode="normal" in="SourceGraphic" in2="BackgroundImageFix" result="shape"/>
<feGaussianBlur stdDeviation="2" result="effect1_foregroundBlur_133_40"/>
</filter>
<filter id="filter22_f_133_40" x="198" y="144" width="13" height="13" filterUnits="userSpaceOnUse" color-interpolation-filters="sRGB">
<feFlood flood-opacity="0" result="BackgroundImageFix"/>
<feBlend mode="normal" in="SourceGraphic" in2="BackgroundImageFix" result="shape"/>
<feGaussianBlur stdDeviation="2" result="effect1_foregroundBlur_133_40"/>
</filter>
<filter id="filter23_f_133_40" x="371" y="511" width="13" height="13" filterUnits="userSpaceOnUse" color-interpolation-filters="sRGB">
<feFlood flood-opacity="0" result="BackgroundImageFix"/>
<feBlend mode="normal" in="SourceGraphic" in2="BackgroundImageFix" result="shape"/>
<feGaussianBlur stdDeviation="2" result="effect1_foregroundBlur_133_40"/>
</filter>
<filter id="filter24_f_133_40" x="112" y="583" width="13" height="13" filterUnits="userSpaceOnUse" color-interpolation-filters="sRGB">
<feFlood flood-opacity="0" result="BackgroundImageFix"/>
<feBlend mode="normal" in="SourceGraphic" in2="BackgroundImageFix" result="shape"/>
<feGaussianBlur stdDeviation="2" result="effect1_foregroundBlur_133_40"/>
</filter>
<filter id="filter25_f_133_40" x="1348" y="303" width="15" height="15" filterUnits="userSpaceOnUse" color-interpolation-filters="sRGB">
<feFlood flood-opacity="0" result="BackgroundImageFix"/>
<feBlend mode="normal" in="SourceGraphic" in2="BackgroundImageFix" result="shape"/>
<feGaussianBlur stdDeviation="2" result="effect1_foregroundBlur_133_40"/>
</filter>
<filter id="filter26_f_133_40" x="722" y="83" width="15" height="15" filterUnits="userSpaceOnUse" color-interpolation-filters="sRGB">
<feFlood flood-opacity="0" result="BackgroundImageFix"/>
<feBlend mode="normal" in="SourceGraphic" in2="BackgroundImageFix" result="shape"/>
<feGaussianBlur stdDeviation="2" result="effect1_foregroundBlur_133_40"/>
</filter>
<filter id="filter27_f_133_40" x="914" y="598" width="15" height="15" filterUnits="userSpaceOnUse" color-interpolation-filters="sRGB">
<feFlood flood-opacity="0" result="BackgroundImageFix"/>
<feBlend mode="normal" in="SourceGraphic" in2="BackgroundImageFix" result="shape"/>
<feGaussianBlur stdDeviation="2" result="effect1_foregroundBlur_133_40"/>
</filter>
<linearGradient id="paint0_linear_133_40" x1="720" y1="0" x2="720" y2="720" gradientUnits="userSpaceOnUse">
<stop stop-color="#261D51"/>
<stop offset="0.487689" stop-color="#683BA7"/>
<stop offset="1" stop-color="#905FBB"/>
</linearGradient>
<clipPath id="clip0_133_40">
<rect width="12" height="10" fill="white" transform="translate(243 247)"/>
</clipPath>
<clipPath id="clip1_133_40">
<rect width="12" height="10" fill="white" transform="translate(421 630)"/>
</clipPath>
<clipPath id="clip2_133_40">
<rect width="5" height="5" fill="white" transform="translate(446 106)"/>
</clipPath>
<clipPath id="clip3_133_40">
<rect width="12" height="10" fill="white" transform="translate(522 455)"/>
</clipPath>
<clipPath id="clip4_133_40">
<rect width="7" height="7" fill="white" transform="translate(452 326)"/>
</clipPath>
<clipPath id="clip5_133_40">
<rect width="12" height="10" fill="white" transform="translate(959 120)"/>
</clipPath>
<clipPath id="clip6_133_40">
<rect width="5" height="5" fill="white" transform="translate(993 335)"/>
</clipPath>
<clipPath id="clip7_133_40">
<rect width="12" height="10" fill="white" transform="translate(1297 671)"/>
</clipPath>
<clipPath id="clip8_133_40">
<rect width="12" height="10" fill="white" transform="translate(1199 537)"/>
</clipPath>
<clipPath id="clip9_133_40">
<rect width="12" height="10" fill="white" transform="translate(1408 29)"/>
</clipPath>
<clipPath id="clip10_133_40">
<rect width="7" height="7" fill="white" transform="translate(1211 195)"/>
</clipPath>
<clipPath id="clip11_133_40">
<rect width="5" height="5" fill="white" transform="translate(1240 102)"/>
</clipPath>
<clipPath id="clip12_133_40">
<rect width="7" height="7" fill="white" transform="translate(1148 335)"/>
</clipPath>
<clipPath id="clip13_133_40">
<rect width="7" height="7" fill="white" transform="translate(1074 455)"/>
</clipPath>
<clipPath id="clip14_133_40">
<rect width="7" height="7" fill="white" transform="translate(1369 465)"/>
</clipPath>
<clipPath id="clip15_133_40">
<rect width="7" height="7" fill="white" transform="translate(641 616)"/>
</clipPath>
<clipPath id="clip16_133_40">
<rect width="5" height="5" fill="white" transform="translate(231 607)"/>
</clipPath>
<clipPath id="clip17_133_40">
<rect width="5" height="5" fill="white" transform="translate(214 453)"/>
</clipPath>
<clipPath id="clip18_133_40">
<rect width="5" height="5" fill="white" transform="translate(36 680)"/>
</clipPath>
<clipPath id="clip19_133_40">
<rect width="5" height="5" fill="white" transform="translate(99 400)"/>
</clipPath>
<clipPath id="clip20_133_40">
<rect width="5" height="5" fill="white" transform="translate(53 130)"/>
</clipPath>
<clipPath id="clip21_133_40">
<rect width="5" height="5" fill="white" transform="translate(111 254)"/>
</clipPath>
<clipPath id="clip22_133_40">
<rect width="5" height="5" fill="white" transform="translate(202 148)"/>
</clipPath>
<clipPath id="clip23_133_40">
<rect width="5" height="5" fill="white" transform="translate(375 515)"/>
</clipPath>
<clipPath id="clip24_133_40">
<rect width="5" height="5" fill="white" transform="translate(116 587)"/>
</clipPath>
<clipPath id="clip25_133_40">
<rect width="7" height="7" fill="white" transform="translate(1352 307)"/>
</clipPath>
<clipPath id="clip26_133_40">
<rect width="7" height="7" fill="white" transform="translate(726 87)"/>
</clipPath>
<clipPath id="clip27_133_40">
<rect width="7" height="7" fill="white" transform="translate(918 602)"/>
</clipPath>
</defs>
</svg>
