<svg width="397" height="246" viewBox="0 0 397 246" fill="none" xmlns="http://www.w3.org/2000/svg">
<g filter="url(#filter0_f_134_402)">
<circle cx="198" cy="71" r="67" fill="#E1D3F4"/>
</g>
<g filter="url(#filter1_f_134_402)">
<circle cx="198" cy="71" r="63" fill="white"/>
</g>
<path d="M189.844 71.2845L186.849 68.3366M182.688 73.9852L182.119 70.5319M175.044 73.7259L176.929 69.9812M172.262 66.0767C177.116 73.3841 187.772 71.6263 190.022 63.147" stroke="#8051B3" stroke-width="1.5" stroke-linecap="round" stroke-linejoin="round"/>
<path d="M237.43 61.5191L234.436 58.5712M230.274 64.2198L229.705 60.7665M222.63 63.9605L224.515 60.2158M219.848 56.3113C224.702 63.6187 235.358 61.8609 237.608 53.3817" stroke="#8051B3" stroke-width="1.5" stroke-linecap="round" stroke-linejoin="round"/>
<path d="M225.603 86.9544C226.916 91.4615 223.446 98.5193 218.939 99.8321C214.432 101.145 205.794 97.6139 204.481 93.1068C203.168 88.5997 210.936 89.1437 215.443 87.8308C219.95 86.518 224.291 82.4473 225.603 86.9544Z" fill="#8051B3"/>
<path d="M9.4 102.1C6.8 100.1 5.2 97.6 4.6 94.6C4 92.2 3.7 89.5 3.7 86.5C3.7 83.5 4 80.8 4.6 78.4C5.2 75.2 6 72.4 7 70C8.2 67.6 8.1 64.8 6.7 61.6C5.3 58.6 4.3 55.4 3.7 52C3.3 48.4 2.4 45 1 41.8C0.4 40.2 0.4 38.4 1 36.4C1.6 34.4 2.4 32.7 3.4 31.3C5 29.1 7.2 27.6 10 26.8C13 25.8 15.8 25.1 18.4 24.7C20.2 24.3 22.3 24.1 24.7 24.1C27.3 23.9 29.5 24.2 31.3 25C34.3 26.2 36.3 28.1 37.3 30.7C38.5 33.1 39.1 35.8 39.1 38.8C38.9 41.4 38.3 43.9 37.3 46.3C36.3 48.5 35.9 50.9 36.1 53.5C36.1 56.9 35.8 60.2 35.2 63.4C35 65.2 34.8 67.2 34.6 69.4C34.6 71.6 35.1 73.5 36.1 75.1C37.3 76.5 39.2 77.1 41.8 76.9H52C54.8 77.1 57.5 77.2 60.1 77.2C62.9 77 65.1 75.5 66.7 72.7C67.9 70.3 68.4 67.6 68.2 64.6C68 61.6 67.7 58.8 67.3 56.2C66.9 53.4 66.4 50.8 65.8 48.4C65.2 45.8 64.7 43.2 64.3 40.6C63.9 37.8 63.8 35.1 64 32.5C64.4 29.7 66 27.5 68.8 25.9C71.6 24.3 74.6 23.4 77.8 23.2C81 22.8 84.1 22.6 87.1 22.6C89.9 22.6 93.2 23.1 97 24.1C101 25.1 103.5 27.3 104.5 30.7C104.9 32.5 104.8 34.5 104.2 36.7C103.6 38.7 102.9 40.5 102.1 42.1C100.3 45.7 99.3 49.4 99.1 53.2C98.9 56.8 98.8 60.6 98.8 64.6V101.2C98.8 105.8 98.8 110.4 98.8 115C98.8 119.6 99.6 124.1 101.2 128.5C102.8 132.5 104 136.3 104.8 139.9C105.8 143.5 105.2 147.5 103 151.9C102 153.7 100.6 154.9 98.8 155.5C97.2 156.1 95.5 156.6 93.7 157C90.9 157.8 87.8 158.2 84.4 158.2C81 158.2 77.9 158 75.1 157.6C73.9 157.4 72.8 157.2 71.8 157C70.8 156.8 69.9 156.5 69.1 156.1C65.1 154.1 62.8 151.3 62.2 147.7C61.8 143.9 62.4 140.2 64 136.6C64.8 134.4 65.6 132.5 66.4 130.9C67.2 129.1 67.7 127.1 67.9 124.9C68.1 122.5 68.1 119.8 67.9 116.8C67.9 113.8 67 111.4 65.2 109.6C62.4 107 59 105.9 55 106.3C51 106.5 47.3 106.5 43.9 106.3C41.7 106.1 39.1 106.1 36.1 106.3C33.1 106.3 30 106.3 26.8 106.3C23.6 106.1 20.4 105.8 17.2 105.4C14.2 104.8 11.6 103.7 9.4 102.1Z" fill="white"/>
<path d="M293.4 102.1C290.8 100.1 289.2 97.6 288.6 94.6C288 92.2 287.7 89.5 287.7 86.5C287.7 83.5 288 80.8 288.6 78.4C289.2 75.2 290 72.4 291 70C292.2 67.6 292.1 64.8 290.7 61.6C289.3 58.6 288.3 55.4 287.7 52C287.3 48.4 286.4 45 285 41.8C284.4 40.2 284.4 38.4 285 36.4C285.6 34.4 286.4 32.7 287.4 31.3C289 29.1 291.2 27.6 294 26.8C297 25.8 299.8 25.1 302.4 24.7C304.2 24.3 306.3 24.1 308.7 24.1C311.3 23.9 313.5 24.2 315.3 25C318.3 26.2 320.3 28.1 321.3 30.7C322.5 33.1 323.1 35.8 323.1 38.8C322.9 41.4 322.3 43.9 321.3 46.3C320.3 48.5 319.9 50.9 320.1 53.5C320.1 56.9 319.8 60.2 319.2 63.4C319 65.2 318.8 67.2 318.6 69.4C318.6 71.6 319.1 73.5 320.1 75.1C321.3 76.5 323.2 77.1 325.8 76.9H336C338.8 77.1 341.5 77.2 344.1 77.2C346.9 77 349.1 75.5 350.7 72.7C351.9 70.3 352.4 67.6 352.2 64.6C352 61.6 351.7 58.8 351.3 56.2C350.9 53.4 350.4 50.8 349.8 48.4C349.2 45.8 348.7 43.2 348.3 40.6C347.9 37.8 347.8 35.1 348 32.5C348.4 29.7 350 27.5 352.8 25.9C355.6 24.3 358.6 23.4 361.8 23.2C365 22.8 368.1 22.6 371.1 22.6C373.9 22.6 377.2 23.1 381 24.1C385 25.1 387.5 27.3 388.5 30.7C388.9 32.5 388.8 34.5 388.2 36.7C387.6 38.7 386.9 40.5 386.1 42.1C384.3 45.7 383.3 49.4 383.1 53.2C382.9 56.8 382.8 60.6 382.8 64.6V101.2C382.8 105.8 382.8 110.4 382.8 115C382.8 119.6 383.6 124.1 385.2 128.5C386.8 132.5 388 136.3 388.8 139.9C389.8 143.5 389.2 147.5 387 151.9C386 153.7 384.6 154.9 382.8 155.5C381.2 156.1 379.5 156.6 377.7 157C374.9 157.8 371.8 158.2 368.4 158.2C365 158.2 361.9 158 359.1 157.6C357.9 157.4 356.8 157.2 355.8 157C354.8 156.8 353.9 156.5 353.1 156.1C349.1 154.1 346.8 151.3 346.2 147.7C345.8 143.9 346.4 140.2 348 136.6C348.8 134.4 349.6 132.5 350.4 130.9C351.2 129.1 351.7 127.1 351.9 124.9C352.1 122.5 352.1 119.8 351.9 116.8C351.9 113.8 351 111.4 349.2 109.6C346.4 107 343 105.9 339 106.3C335 106.5 331.3 106.5 327.9 106.3C325.7 106.1 323.1 106.1 320.1 106.3C317.1 106.3 314 106.3 310.8 106.3C307.6 106.1 304.4 105.8 301.2 105.4C298.2 104.8 295.6 103.7 293.4 102.1Z" fill="white"/>
<defs>
<filter id="filter0_f_134_402" x="127" y="0" width="142" height="142" filterUnits="userSpaceOnUse" color-interpolation-filters="sRGB">
<feFlood flood-opacity="0" result="BackgroundImageFix"/>
<feBlend mode="normal" in="SourceGraphic" in2="BackgroundImageFix" result="shape"/>
<feGaussianBlur stdDeviation="2" result="effect1_foregroundBlur_134_402"/>
</filter>
<filter id="filter1_f_134_402" x="131" y="4" width="134" height="134" filterUnits="userSpaceOnUse" color-interpolation-filters="sRGB">
<feFlood flood-opacity="0" result="BackgroundImageFix"/>
<feBlend mode="normal" in="SourceGraphic" in2="BackgroundImageFix" result="shape"/>
<feGaussianBlur stdDeviation="2" result="effect1_foregroundBlur_134_402"/>
</filter>
</defs>
</svg>
